<?xml version="1.0" standalone="no"?>
<!DOCTYPE svg PUBLIC "-//W3C//DTD SVG 20010904//EN"
 "http://www.w3.org/TR/2001/REC-SVG-20010904/DTD/svg10.dtd">
<svg version="1.0" xmlns="http://www.w3.org/2000/svg"
 width="173.000000pt" height="173.000000pt" viewBox="0 0 173.000000 173.000000"
 preserveAspectRatio="xMidYMid meet">

<g transform="translate(0.000000,173.000000) scale(0.100000,-0.100000)"
fill="#000000" stroke="none">
<path d="M590 1323 c-14 -2 -49 -8 -77 -15 l-53 -11 0 -74 c0 -70 1 -73 24
-73 20 0 25 6 30 43 9 59 18 69 68 74 85 10 138 -41 138 -132 0 -50 -13 -80
-70 -165 -50 -75 -71 -134 -73 -211 -2 -59 0 -64 20 -67 18 -3 23 3 28 35 13
83 37 144 78 194 100 121 116 145 127 184 21 76 -16 157 -88 194 -37 18 -106
29 -152 24z"/>
<path d="M1060 1323 c-14 -2 -49 -8 -77 -15 l-53 -11 0 -74 c0 -71 1 -74 22
-71 17 2 25 14 34 51 7 27 15 51 18 54 3 3 25 8 49 10 84 10 137 -42 137 -132
0 -50 -12 -79 -70 -165 -49 -72 -70 -129 -77 -206 -5 -54 -3 -65 11 -70 25
-10 35 6 46 68 11 73 36 119 105 198 73 84 99 133 98 191 -1 115 -105 188
-243 172z"/>
<path d="M557 592 c-23 -25 -21 -68 3 -92 23 -23 29 -24 63 -11 26 10 43 43
38 71 -9 47 -73 66 -104 32z"/>
<path d="M1028 593 c-24 -27 -26 -46 -12 -75 17 -33 46 -43 76 -27 30 16 38
28 38 60 0 51 -69 79 -102 42z"/>
</g>
</svg>
